<?xml version="1.0" encoding="UTF-8" standalone="no"?>
<!DOCTYPE svg PUBLIC "-//W3C//DTD SVG 1.1//EN" "http://www.w3.org/Graphics/SVG/1.1/DTD/svg11.dtd">
<svg width="100%" height="100%" viewBox="0 0 199 55" version="1.1" xmlns="http://www.w3.org/2000/svg" xmlns:xlink="http://www.w3.org/1999/xlink" xml:space="preserve" xmlns:serif="http://www.serif.com/" style="fill-rule:evenodd;clip-rule:evenodd;stroke-linejoin:round;stroke-miterlimit:2;">
    <g>
        <path d="M79.207,27.323C79.245,23.032 80.691,21.379 83.886,21.379C87.044,21.379 88.337,22.835 88.337,27.323L79.207,27.323ZM84.191,36.456C80.615,36.456 79.321,34.685 79.283,31.102L92.674,31.102L92.978,27.599C92.978,20.631 89.973,17.363 83.924,17.363C77.952,17.363 74.566,21.064 74.566,29.252C74.566,37.126 77.077,40.708 83.544,40.708C87.348,40.708 92.255,39.684 92.255,39.684L92.179,36.063C92.141,36.063 87.576,36.456 84.191,36.456Z" style="fill:white;fill-rule:nonzero;"/>
        <path d="M105.151,36.378C104.276,36.378 101.917,36.181 101.917,36.181L101.917,22.599C101.917,22.599 104.466,21.694 106.748,21.694C109.639,21.694 110.895,23.662 110.895,28.701C110.895,34.173 109.944,36.378 105.151,36.378ZM107.319,17.363C104.884,17.363 101.917,18.702 101.917,18.702L101.917,8.584L97.238,8.584L97.238,40.196C97.238,40.196 102.868,40.747 105.151,40.747C112.873,40.747 115.688,38.031 115.688,28.78C115.688,20.355 113.177,17.363 107.319,17.363Z" style="fill:white;fill-rule:nonzero;"/>
        <path d="M128.584,17.363C122.155,17.363 119.568,20.709 119.568,28.701C119.568,37.283 121.851,40.669 128.508,40.669C130.714,40.669 135.089,39.881 135.089,39.881L134.975,35.984C134.975,35.984 131.551,36.338 129.915,36.338C125.236,36.338 124.361,34.409 124.361,28.701C124.361,23.544 125.389,21.694 129.877,21.694C131.513,21.694 134.937,22.048 134.937,22.048L135.127,18.19C135.089,18.229 130.904,17.363 128.584,17.363Z" style="fill:white;fill-rule:nonzero;"/>
        <path d="M148.593,36.574C144.561,36.574 143.724,34.055 143.724,28.898C143.724,23.741 144.789,21.497 148.593,21.497C152.397,21.497 153.462,23.741 153.462,28.898C153.462,34.055 152.587,36.574 148.593,36.574ZM148.593,17.363C141.365,17.363 138.969,21.654 138.969,28.898C138.969,36.299 141.213,40.708 148.593,40.708C156.011,40.708 158.217,36.338 158.217,28.898C158.217,21.654 155.783,17.363 148.593,17.363Z" style="fill:white;fill-rule:nonzero;"/>
        <path d="M167.27,40.236L167.27,22.875C167.27,22.875 169.628,21.694 172.139,21.694C175.41,21.694 175.981,23.898 175.981,28.347L175.981,40.196L180.66,40.196L180.66,28.229C180.66,20.906 179.176,17.363 173.204,17.363C170.389,17.363 167.232,19.253 167.232,19.253L167.232,17.875L162.553,17.875L162.553,40.236L167.27,40.236Z" style="fill:white;fill-rule:nonzero;"/>
        <path d="M198.083,22.009L198.083,17.875L192.11,17.875L192.11,11.379L187.431,11.379L187.431,17.875L184.654,17.875L184.654,22.048L187.431,22.048L187.431,32.401C187.431,38.818 188.953,40.708 193.822,40.708C195.344,40.708 198.235,40.117 198.235,40.117L198.006,36.22C198.006,36.22 195.686,36.338 194.469,36.338C192.224,36.338 192.11,35.157 192.11,31.811L192.11,21.969L198.083,21.969L198.083,22.009Z" style="fill:white;fill-rule:nonzero;"/>
        <path d="M58.437,27.402L44.134,53.03L15.68,53.03L1.453,27.402L15.756,1.774L44.21,1.774L58.437,27.402ZM59.616,27.402L44.781,0.711L15.147,0.711L0.273,27.402L15.109,54.093L44.743,54.093L59.616,27.402Z" style="fill:white;fill-rule:nonzero;"/>
    </g>
</svg>
